<svg xmlns="http://www.w3.org/2000/svg" width="32" height="32" viewBox="364 0 32 32" fill="#185ff9"><path stroke="#185ff9" stroke-width=".5" d="M394.34 17.49c0-6.896-5.61-12.46-12.508-12.507-1.212-.008-2.543.18-3.63.537-.39.128-1.36.51-1.057 1.2.27.618 1.082.324 1.475.212 1.21-.345 2.118-.464 3.212-.464a11.04 11.04 0 0 1 11.025 11.023 10.98 10.98 0 0 1-2.896 7.447c-2.084 2.274-5.048 3.58-8.13 3.58a11.06 11.06 0 0 1-7.868-3.306l.037-.157c.012-.042.022-.087.033-.124.02-.063.036-.13.054-.2a1.22 1.22 0 0 0 .034-.112l.075-.213c.01-.027.017-.054.03-.078.07-.195.148-.384.237-.57.012-.027.027-.056.042-.082.03-.065.06-.127.095-.2l.055-.1c.03-.056.063-.11.095-.165.018-.036.04-.07.063-.107l.095-.154a1.72 1.72 0 0 1 .071-.103c.033-.05.065-.102.1-.146.024-.038.05-.073.075-.106l.104-.14c.027-.033.057-.07.083-.104.034-.044.07-.088.104-.13.03-.033.062-.067.09-.104.035-.04.073-.082.11-.12.03-.035.063-.068.09-.1a3.1 3.1 0 0 0 .114-.119c.033-.034.068-.063.1-.095a1.41 1.41 0 0 1 .118-.112c.032-.032.066-.062.1-.09l.125-.1c.03-.03.068-.056.104-.088s.085-.066.125-.1c.04-.028.076-.054.1-.083l.13-.096c.038-.028.076-.053.115-.08a5.11 5.11 0 0 1 .133-.092c.04-.023.08-.048.118-.074.047-.027.1-.058.14-.086.037-.022.08-.044.12-.068.047-.027.095-.05.14-.08.044-.02.085-.043.127-.065s.095-.047.145-.07c.042-.023.083-.04.125-.06l.15-.065c.04-.017.085-.037.126-.058.052-.018.102-.04.153-.057.043-.018.088-.032.13-.053.05-.018.104-.036.155-.05.044-.015.09-.03.135-.042.052-.02.106-.032.16-.05l.133-.04.164-.04c.045-.008.09-.02.133-.032l.172-.033c.045-.01.09-.02.132-.026.06-.01.117-.02.175-.03.046-.002.09-.012.134-.018.06-.01.125-.012.185-.02.043-.003.084-.01.126-.014.07-.004.14-.012.2-.015.035-.003.07-.006.104-.006.104-.006.2-.01.316-.01h1.826a7.12 7.12 0 0 1 5.515 2.605c.26.317.727.362 1.044.103s.36-.728.102-1.043a8.62 8.62 0 0 0-4.437-2.854 4.72 4.72 0 0 0 1.599-3.543c0-2.61-2.126-4.736-4.736-4.736s-4.735 2.125-4.735 4.736c0 1.408.62 2.676 1.6 3.543-.025.007-.046.014-.072.018-.102.026-.203.06-.303.092-.013.004-.024.008-.04.01-.11.035-.222.076-.33.115-.036.012-.068.028-.104.04l-.225.09-.125.054c-.065.027-.133.056-.2.1-.04.017-.085.04-.126.06l-.188.1c-.046.026-.084.048-.128.067l-.187.104c-.04.022-.08.047-.12.068l-.2.118c-.037.02-.07.042-.106.063l-.234.16c-.02.01-.036.023-.056.035l-.28.205c-.026.022-.05.046-.077.063-.068.05-.13.103-.194.154-.034.027-.067.06-.1.086l-.164.143c-.035.03-.07.064-.105.095l-.15.147c-.034.03-.066.065-.102.1a3.49 3.49 0 0 0-.145.151c-.033.033-.066.065-.096.1-.052.054-.1.112-.15.166-.027.035-.055.065-.084.098-.057.068-.112.136-.166.207-.017.02-.036.042-.053.063-.07.093-.14.185-.208.283-.017.022-.034.05-.052.075-.05.068-.1.142-.145.213-.024.035-.047.073-.07.11-.04.063-.076.124-.115.19a1.94 1.94 0 0 0-.071.123l-.104.187c-.024.042-.048.085-.07.128l-.095.2-.062.132-.093.2c-.018.042-.035.08-.052.126-.034.078-.066.16-.1.238-.01.03-.02.06-.033.092-1.314-1.838-2.022-4.046-2.022-6.342 0-.407-.334-.74-.74-.74a.74.74 0 0 0-.741.739 12.46 12.46 0 0 0 3.285 8.448c2.365 2.58 5.728 4.06 9.22 4.06 3.498 0 6.857-1.48 9.223-4.06a12.48 12.48 0 0 0 3.283-8.449zm-12.508-5.79c1.796 0 3.254 1.46 3.254 3.253s-1.458 3.252-3.254 3.252-3.25-1.46-3.25-3.252 1.457-3.253 3.25-3.253zm0 0"/><path fill-rule="evenodd" d="M376.952 9.18c-.017-.164-.208-.287-.374-.287a1.29 1.29 0 0 1-1.204-.797 1.3 1.3 0 0 1 .325-1.439c.126-.114.14-.307.036-.44-.273-.347-.583-.66-.924-.93-.132-.106-.325-.09-.44.036-.347.384-.97.526-1.45.326a1.29 1.29 0 0 1-.786-1.263c.01-.172-.115-.32-.286-.34-.435-.05-.873-.05-1.31-.003-.17.018-.294.164-.29.333.02.54-.3 1.038-.797 1.24-.475.195-1.095.053-1.44-.327-.115-.125-.306-.142-.44-.038-.35.274-.666.587-.94.93-.107.133-.092.328.034.44a1.29 1.29 0 0 1 .325 1.452c-.2.48-.697.787-1.266.787-.184-.007-.315.118-.336.286-.052.437-.052.883-.003 1.324.018.164.215.286.382.286.507-.013.992.3 1.197.798s.072 1.074-.325 1.44c-.125.114-.142.306-.036.438a5.87 5.87 0 0 0 .92.931c.136.107.328.092.444-.035.35-.385.97-.527 1.45-.327a1.29 1.29 0 0 1 .788 1.263c-.01.172.114.32.285.34.223.025.445.038.67.038a5.93 5.93 0 0 0 .638-.035c.17-.02.294-.164.288-.333-.02-.54.302-1.04.797-1.24.478-.196 1.094-.053 1.44.327.116.125.306.14.44.036.348-.272.665-.585.94-.93.107-.133.093-.327-.035-.442a1.29 1.29 0 0 1-.325-1.452c.198-.47.676-.788 1.2-.788l.072.001c.166.014.32-.115.34-.285.053-.436.053-.88.003-1.322zm-5.772 3.466c-1.547 0-2.808-1.26-2.808-2.807s1.26-2.808 2.808-2.808 2.808 1.26 2.808 2.808a2.81 2.81 0 0 1-2.808 2.807z"/></svg>