<svg xmlns="http://www.w3.org/2000/svg" width="32" height="32" viewBox="312 0 32 32"><path fill="#185ff9" stroke="#185ff9" d="M341.2 14.768h-1.23V9.102c0-1.358-1.105-2.463-2.463-2.463h-1.668l-1.707-3.07a1.48 1.48 0 0 0-1.293-.76c-.25 0-.498.064-.718.187l-5.185 3.595-8.684.048a2.47 2.47 0 0 0-2.464 2.463v16.914c0 1.36 1.104 2.465 2.464 2.465h19.254a2.47 2.47 0 0 0 2.463-2.465V21.05h1.23v-6.282zm-3.694-7.143c.758 0 1.617 1.823 1.7 2.56l-2.067.024-.755-2.584h1.12zM332.6 3.857c.23-.13.542-.04.67.19l2.742 6.16h-12.525l9.113-6.35zm6.384 22.16a1.48 1.48 0 0 1-1.478 1.479h-19.254a1.48 1.48 0 0 1-1.479-1.479V9.102a1.48 1.48 0 0 1 1.479-1.478l7.008-.024-3.8 2.608h-2.876c-.272 0-.493.22-.493.493s.22.493.493.493h1.104l17.69-.048 1.632.048-.024 3.574h-3.603a3.04 3.04 0 0 0-3.035 3.035v.213a3.04 3.04 0 0 0 3.035 3.033h3.603v4.967zm1.23-5.952h-4.834c-1.13 0-2.05-.92-2.05-2.05v-.21a2.05 2.05 0 0 1 2.05-2.05h4.834v4.312zm-3.685-2.115c0 .602-.127.535-.728.535s-.704.066-.704-.535.15-.61.752-.61.68.008.68.61z"/></svg>